/* XPM */
static char *result[] = {
/* columns rows colors chars-per-pixel */
"32 32 27 1 ",
"  c #177E3A",
". c #197C3C",
"X c #197741",
"o c #197840",
"O c #229B1D",
"+ c #2A9B1D",
"@ c #309F19",
"# c #36AA0D",
"$ c #38AB0D",
"% c #2EA414",
"& c #2FA018",
"* c #31A414",
"= c #30A018",
"- c #158A2D",
"; c #1B8D2A",
": c #1A9325",
"> c #1A9028",
", c #158433",
"< c #1E8533",
"1 c #158830",
"2 c #1E8830",
"3 c #168038",
"4 c #1A8038",
"5 c #238B2D",
"6 c #2A9622",
"7 c #2C9820",
"8 c #218434",
/* pixels */
". -- 8&%:-  --..X8@@58@@8..8@@8.",
". ;:,<6+>1, --5..8++88++...5@68.",
"o86+:12< 4--,<+6 <;>  >;..++5<,-",
" 5=%:- .<1-- 8672 ,,, 1-55@+< ;O",
"-:**:- <6+:-..<<-1  -1 2+@O; <+%",
"-;++O; <++:,3.. -;28-,.8+O>-<5+%",
"  <5+684;:141,. -:O+2 . ;: <++O:",
".. <+684;;< ,-<5:O++588<-,<5++;-",
"o ,-88.8++...<+@@+55+@@+<<++58..",
"88-1...<6+8.X8+%@+<-+*#@8<++5.< ",
"@78 ..1-<<-,. >:5<,-:O#@8 :O++>-",
"*+8..5-13<::5;--1<1--;OO2 ,:@*:-",
"O; 87+; ,:+%@+::+68  <::-1 ;@@; ",
"-, 8++8 -:+*%+:>++8 <8,--;25++2 ",
"  . ;>.4---5:>, 82->++,,-:+@O:;1",
"...51, .1,  ;> .  :OO+< -:OO:-::",
"..++8......<++< ,:O%O; ..2>: 2+*",
"..++ .  .. 5++- -:++;12.. ;2 8+@",
"o.:;8 ,1.8++O:---;1 .56+85++8..5",
"85-<  -- 5@@:-::-25.. ++8.++8   ",
"@+..... -5%@22++;2+6..:;...5----",
"@+5.8 88-:%@2<+62<++5 ,-58. ::;-",
"822;+@@+<2@%:,<<--82-, 2+688++1 ",
"<8:O+@@+<<++O:2<-, ,<-25+68.++..",
"@+%O5888--<5+*@+2 ,- 8++5...5:..",
"##%+<..2--25+@@+< ,-< ++5888--58",
"##O: .++::++55:> . <--<5@@@+<56@",
"*+:  8++:;++8 --28  ,1<5+@@6..+*",
"O;  ;122--;--, <++2, 2++O:5.. :O",
"-;-<;1  ::< --,<++:, 2@%>-<< <,-",
"  +62 -:O+:-  ,-<8  ,:*@5 ++>,  ",
".8@@< -O%%:;  ;- .. -O%@88@%:- ."
};
