/* XPM */
static char *result[] = {
/* columns rows colors chars-per-pixel */
"32 32 241 2 ",
"   c black",
".  c #231A01",
"X  c #441E08",
"o  c #622C0C",
"O  c #157F38",
"+  c #177E39",
"@  c #177F39",
"#  c #177C3B",
"$  c #167D3B",
"%  c #177D3B",
"&  c #177E3A",
"*  c #177C3C",
"=  c #197F38",
"-  c #187E39",
";  c #197E39",
":  c #187F39",
">  c #197F39",
",  c #1A7F38",
"<  c #187D3A",
"1  c #187D3B",
"2  c #197D3B",
"3  c #187E3A",
"4  c #197E3A",
"5  c #1A7B3D",
"6  c #1B7B3D",
"7  c #18793F",
"8  c #19793F",
"9  c #1A793F",
"0  c #1B793F",
"q  c #197A3E",
"w  c #1B7A3E",
"e  c #1C7B3D",
"r  c #187C3C",
"t  c #1C7C3C",
"y  c #187741",
"u  c #197741",
"i  c #197840",
"p  c #1A7840",
"a  c #A27A02",
"s  c #279D1A",
"d  c #279D1B",
"f  c #20991E",
"g  c #20981F",
"h  c #20991F",
"j  c #209A1E",
"k  c #229C1C",
"l  c #289E19",
"z  c #289F19",
"x  c #289D1A",
"c  c #2B9D1A",
"v  c #2A9C1B",
"b  c #2B9C1B",
"n  c #2B9D1B",
"m  c #289E1A",
"M  c #2B9E1A",
"N  c #2F9F19",
"B  c #2C9D1B",
"V  c #2F9D1B",
"C  c #2C9E1A",
"Z  c #299B1C",
"A  c #289A1D",
"S  c #299A1D",
"D  c #289B1D",
"F  c #299B1D",
"G  c #2A9B1D",
"H  c #29991E",
"J  c #28981F",
"K  c #29991F",
"L  c #299A1E",
"P  c #2A9A1E",
"I  c #2C991F",
"U  c #2D991F",
"Y  c #299C1C",
"T  c #2B9C1C",
"R  c #309F19",
"E  c #319F19",
"W  c #309D1B",
"Q  c #309F1A",
"!  c #37AB0D",
"~  c #35A90E",
"^  c #38AB0D",
"/  c #2EA512",
"(  c #2FA512",
")  c #2EA413",
"_  c #2FA413",
"`  c #2EA513",
"'  c #2FA513",
"]  c #2FA315",
"[  c #2EA414",
"{  c #2FA414",
"}  c #2FA018",
"|  c #31A611",
" . c #31A612",
".. c #30A117",
"X. c #30A018",
"o. c #31A018",
"O. c #118F28",
"+. c #158E29",
"@. c #158D2A",
"#. c #148C2B",
"$. c #158C2B",
"%. c #168D2A",
"&. c #158E2A",
"*. c #128B2C",
"=. c #138A2D",
"-. c #138B2D",
";. c #12892E",
":. c #13892E",
">. c #12882F",
",. c #12892F",
"<. c #13892F",
"1. c #138A2E",
"2. c #148A2D",
"3. c #16892E",
"4. c #17892E",
"5. c #16882F",
"6. c #17882F",
"7. c #16892F",
"8. c #17892F",
"9. c #178A2E",
"0. c #1A8F28",
"q. c #1B8F28",
"w. c #1A8E29",
"e. c #1A8F29",
"r. c #1B8F29",
"t. c #1D892F",
"y. c #1F892E",
"u. c #1E882F",
"i. c #1F882F",
"p. c #1F892F",
"a. c #1B9720",
"s. c #1A9621",
"d. c #1B9621",
"f. c #1B9721",
"g. c #199423",
"h. c #199324",
"j. c #189225",
"k. c #189325",
"l. c #199027",
"z. c #1A9126",
"x. c #1A9027",
"c. c #1B9027",
"v. c #1A9127",
"b. c #1C9225",
"n. c #1D9225",
"m. c #1C9325",
"M. c #1C9126",
"N. c #1C9226",
"B. c #199424",
"V. c #199028",
"C. c #1A9028",
"Z. c #1B9028",
"A. c #138631",
"S. c #138532",
"D. c #148730",
"F. c #158730",
"G. c #148631",
"H. c #158631",
"J. c #148731",
"K. c #168730",
"L. c #148532",
"P. c #158532",
"I. c #148533",
"U. c #158632",
"Y. c #178334",
"T. c #168136",
"R. c #178136",
"E. c #168037",
"W. c #168137",
"Q. c #178137",
"!. c #178236",
"~. c #198533",
"^. c #1D8730",
"/. c #1D8631",
"(. c #1C8731",
"). c #1D8731",
"_. c #1E8730",
"`. c #1E8631",
"'. c #1E8731",
"]. c #1D8532",
"[. c #1D8533",
"{. c #1D8632",
"}. c #1E8632",
"|. c #188334",
" X c #1A8037",
".X c #1A8137",
"XX c #1B8137",
"oX c #1E8235",
"OX c #1E8335",
"+X c #1F8335",
"@X c #1E8137",
"#X c #1F8137",
"$X c #1E8236",
"%X c #1F8236",
"&X c #188434",
"*X c #1E8434",
"=X c #1F8434",
"-X c #158830",
";X c #1D8830",
":X c #1E8830",
">X c #168038",
",X c #198038",
"<X c #1A8038",
"1X c #1B8038",
"2X c #248D2B",
"3X c #258D2B",
"4X c #258E2A",
"5X c #20892E",
"6X c #20892F",
"7X c #208A2E",
"8X c #248B2D",
"9X c #258B2D",
"0X c #268B2D",
"qX c #248C2C",
"wX c #258C2C",
"eX c #2A9720",
"rX c #2B9720",
"tX c #2A9621",
"yX c #2A9721",
"uX c #2B9721",
"iX c #2A9523",
"pX c #2B9523",
"aX c #2A9622",
"sX c #2B9622",
"dX c #2C9523",
"fX c #2A9424",
"gX c #2B9820",
"hX c #2C9820",
"jX c #2D9820",
"kX c #2D9920",
"lX c #2C9821",
"zX c #218533",
"xX c #228533",
"cX c #218632",
"vX c #228632",
"bX c #208335",
"nX c #208236",
"mX c #208336",
"MX c #208434",
"NX c #218434",
"BX c #DAA402",
/* pixels */
"9 : 1.:.& xXE / a.:.3 : 2.-.+ i i cXE R zXzXR E cXi y zXX.R cXi ",
"9  Xe.x.&X}.yXL 0.G.Q.R.F.4.'.%Xt =XL L +X+XL L *X6 #XwXU yX/.& ",
"p =XK s x.6.'.=X<XW.F.F.T.'.eXsXnX<X0.q.<X<Xq.0.,X#XpXU wX{.5.:.",
"& 7XX.' a.;.& e nXu.+.=.& nXsXgX'.W.G.G.!.!.D.5.{.4XC L OX> w.a.",
":.n.] ' d.>.$ nXdXY g.=.3 t mX_.4.D.E.W.D.D.W.}.uXC j w.; oXK ' ",
"=.q.K b h w.<X=XL l z.D.!.1 8 & =.@.:X'.4.L.r +XP z l.F.{.3Xn ` ",
": <XOX3Xc L =X<Xe.x.~.!.-XH.r % ,.B.Y uX`.* 8 <XZ.v.Y.[.yXc h s.",
"9 q * '.rXsXnX<Xe.0.<X2 H.4.'.5XN.h n U 9XzXzX/.5.5.{.0XkXH w.>.",
"p 1 P.4.'.nXe =X      8 1 '.yX..{ T qX9XhX      ].{.yXU wXOX, & ",
"vX'.9.H.1 7 1 _.  a a                     a a   NX+XL M 2X$X<X: ",
"E yX_.1 7 % H.9.  BX. X X X X X X X X X X . BX  xX> e.f T J r.1.",
"/ L =Xe nX_.9.D.  BX. o o o o o o o o o o . BX  :X>XS.N.] ] n.:.",
"a.0.<XnXsXgX'.W.  BX. X X X X X X X X X X . BX  %.G.O p.X.X.7X& ",
"=.L.# =XG G =X&   BX. o o o o o o o o o o . BX  O.@.).3Xn A ^.% ",
"@ 1 q  Xc.Z.XX:   BX. o o o . . . . o o o . BX  *.g.F B g j.$.<.",
"9 t bX'.3.P.1 4   . . . . . BXBXBXBX. . . . .   I.z.l m C.#.h.a.",
"8 bXsXgX'.1 q 5   BXBXBXBXBXBX. . BXBXBXBXBXBX  1 ~.v.l.&X;XF ( ",
"i =XS G =Xq < 3   . . . BXBX.     . BXBX. . .   t  X0.e.<XnXpXE ",
"i <XZ.c..X1 H.H.  BX. o . BXBX    BXBX. o . BX  %X=XL L =Xe nXvX",
"vX'.8.P.1 1 U.D.  BX. o o . BXBXBXBX. o o . BX  OX%XpXgX'.& & + ",
"o.yX'.r q q 1 W.  BX. o o o . . . . o o o . BX  <X6 nX'.8.1.1.=.",
"R aX}.= =XvXvX}.  BX. X X X X X X X X X X . BX  '.nX6 <Xq.g.&.2.",
"zX{.K.w.L o.o.aX  a . o o o o o o o o o o . a   yXsX%XOXL Z t.+ ",
"MXi.M.h n E R aX                                U iX%XOXL L =Xu ",
"V N ] n 2XzXzX{.8.5.[.qXn { X.aX}.T.D.D.W.'.uXU wX@X6 <XZ.q.<Xi ",
"! ~ | K OXw #X;X@.@.(.9XjX..{ L +Xr U.D.W.'.yXI 9XNXzX'.7.5.'.vX",
"^  .k w.> #XpXD h.h.D jX9X6Xm.C.<X8 2 !.-X8.{.8XlXR o.yX{.{.aXE ",
"[ d V.S.E.'.uXF k.k.F uX}.E.A.8.'.=X1X!.D.6.[.qXb { ..fX#X+XH / ",
"f.x.|.E.D.4.'.:X$.$.:X'.8.J.E.}.uXG Z.G.W.}.aXv h b.y.#Xe <Xq.a.",
":.6.}.'.4.D.W.&Xx.x.&XW.F.D.Q.`.uXL Z.G.E.5XX.] N.K.].+X<X!.J.:.",
"& `.tXyX'.W.G.x.x x x.G.Q.!.F.4.'.=X.XT.G.n.] } p.[.aXH q.J.W.3 ",
"i cXR E xX% :.a._ _ a.:.3 : 2.-.+ p p - 1.a.) W NXNXQ / a.:.3 0 "
};
