/* XPM */
static char *result[] = {
/* columns rows colors chars-per-pixel */
"32 32 242 2 ",
"   c black",
".  c #1E3C09",
"X  c #392B1C",
"o  c #325D14",
"O  c #157F38",
"+  c #177E39",
"@  c #177F39",
"#  c #177C3B",
"$  c #167D3B",
"%  c #177D3B",
"&  c #177E3A",
"*  c #177C3C",
"=  c #197F38",
"-  c #197E39",
";  c #187F39",
":  c #197F39",
">  c #1A7F38",
",  c #187D3A",
"<  c #187D3B",
"1  c #197D3B",
"2  c #187E3A",
"3  c #197E3A",
"4  c #1A7A3D",
"5  c #1A7B3D",
"6  c #1B7B3D",
"7  c #18793F",
"8  c #19793F",
"9  c #1A793F",
"0  c #1B793F",
"q  c #197A3E",
"w  c #1B7A3E",
"e  c #1C7B3D",
"r  c #187C3C",
"t  c #1C7C3C",
"y  c #5D4934",
"u  c #487E23",
"i  c #187741",
"p  c #197741",
"a  c #197840",
"s  c #1A7840",
"d  c #AB4818",
"f  c #D25F27",
"g  c #846B52",
"h  c #937C65",
"j  c #279D1A",
"k  c #279D1B",
"l  c #279E1A",
"z  c #20991E",
"x  c #20981F",
"c  c #20991F",
"v  c #209A1E",
"b  c #229C1C",
"n  c #289E19",
"m  c #289F19",
"M  c #289D1A",
"N  c #2B9D1A",
"B  c #2A9C1B",
"V  c #2B9C1B",
"C  c #2B9D1B",
"Z  c #2B9E1A",
"A  c #2F9F19",
"S  c #2C9D1B",
"D  c #2F9D1B",
"F  c #2C9E1A",
"G  c #299B1C",
"H  c #289A1D",
"J  c #299A1D",
"K  c #299B1D",
"L  c #2A9B1D",
"P  c #29991E",
"I  c #28981F",
"U  c #29991F",
"Y  c #299A1E",
"T  c #2A9A1E",
"R  c #2D991F",
"E  c #299C1C",
"W  c #2B9C1C",
"Q  c #309F19",
"!  c #319F19",
"~  c #309D1B",
"^  c #309F1A",
"/  c #37AB0D",
"(  c #35A90E",
")  c #38AB0D",
"_  c #2EA512",
"`  c #2FA512",
"'  c #2EA413",
"]  c #2FA413",
"[  c #2EA513",
"{  c #2FA513",
"}  c #2FA315",
"|  c #2EA414",
" . c #2FA414",
".. c #2FA018",
"X. c #31A611",
"o. c #31A612",
"O. c #30A117",
"+. c #30A018",
"@. c #31A018",
"#. c #158E29",
"$. c #158D2A",
"%. c #148C2B",
"&. c #158C2B",
"*. c #158E2A",
"=. c #138A2D",
"-. c #138B2D",
";. c #12892E",
":. c #13892E",
">. c #12882F",
",. c #12892F",
"<. c #13892F",
"1. c #138A2E",
"2. c #148A2D",
"3. c #16892E",
"4. c #17892E",
"5. c #16882F",
"6. c #17882F",
"7. c #16892F",
"8. c #17892F",
"9. c #178A2E",
"0. c #1A8F28",
"q. c #1B8F28",
"w. c #1A8E29",
"e. c #1A8F29",
"r. c #1B8F29",
"t. c #1D892F",
"y. c #1F892E",
"u. c #1E882F",
"i. c #1F882F",
"p. c #1F892F",
"a. c #1B9720",
"s. c #1A9621",
"d. c #1B9621",
"f. c #1B9721",
"g. c #199423",
"h. c #199324",
"j. c #189225",
"k. c #199027",
"l. c #1A9126",
"z. c #1A9027",
"x. c #1B9027",
"c. c #1A9127",
"v. c #1C9225",
"b. c #1D9225",
"n. c #1D9325",
"m. c #1C9126",
"M. c #1C9226",
"N. c #199424",
"B. c #199028",
"V. c #1A9028",
"C. c #1B9028",
"Z. c #138532",
"A. c #148730",
"S. c #158730",
"D. c #148631",
"F. c #158631",
"G. c #148731",
"H. c #168730",
"J. c #148532",
"K. c #158532",
"L. c #148632",
"P. c #158632",
"I. c #178334",
"U. c #168136",
"Y. c #178136",
"T. c #168037",
"R. c #168137",
"E. c #178137",
"W. c #178236",
"Q. c #198533",
"!. c #1D8730",
"~. c #1D8631",
"^. c #1D8731",
"/. c #1E8730",
"(. c #1E8631",
"). c #1E8731",
"_. c #1D8532",
"`. c #1D8533",
"'. c #1D8632",
"]. c #1E8632",
"[. c #188334",
"{. c #1A8037",
"}. c #1A8137",
"|. c #1B8137",
" X c #1E8235",
".X c #1E8335",
"XX c #1F8335",
"oX c #1E8137",
"OX c #1F8137",
"+X c #1E8236",
"@X c #1F8236",
"#X c #188434",
"$X c #1E8434",
"%X c #1F8434",
"&X c #158830",
"*X c #1D8830",
"=X c #1E8830",
"-X c #168038",
";X c #198038",
":X c #1A8038",
">X c #248D2B",
",X c #258D2B",
"<X c #258E2A",
"1X c #20892E",
"2X c #208A2E",
"3X c #248B2D",
"4X c #258B2D",
"5X c #268B2D",
"6X c #248C2C",
"7X c #258C2C",
"8X c #2A9720",
"9X c #2B9720",
"0X c #2A9621",
"qX c #2A9721",
"wX c #2B9721",
"eX c #2A9523",
"rX c #2B9523",
"tX c #299622",
"yX c #2A9622",
"uX c #2B9622",
"iX c #2C9523",
"pX c #2A9424",
"aX c #2B9820",
"sX c #2D9920",
"dX c #2C9821",
"fX c #218533",
"gX c #228533",
"hX c #218632",
"jX c #228632",
"kX c #208335",
"lX c #208236",
"zX c #208336",
"xX c #208434",
"cX c #218434",
"vX c #609F36",
"bX c #AE8021",
"nX c #DBA637",
"mX c #FCC552",
"MX c #B7A089",
"NX c #DECBB7",
"BX c #FFE8B9",
"VX c white",
/* pixels */
"9 ; 1.:.& gX! _ a.:.2 ; 2.-.+ a a hX! Q fXfXQ ! hXa i fX+.Q hXa ",
"9 {.e.z.#X].qXY 0.D.E.Y.S.4.).@Xt %XY Y XXXXY Y $X6 OX7XR qX~.& ",
"s %XU j z.6.).%X:XR.S.S.U.).8XuXlX:X0.q.:X:Xq.0.;XOXrXR 7X'.5.:.",
"& 2X+.{ a.;.& e lXu.#.=.& lXuXaX).R.D.D.W.W.A.5.'.<XF Y .X: w.a.",
":.b.} { d.>.$ lXiXE g.=.2 t zX/.4.A.T.R.A.A.R.].wXF v w.-  XU { ",
"=.q.U V c w.:X%XY n l.A.W.< 8 & =.$.=X).4.J.r XXT m k.S.'.,XC [ ",
"; :X.X,XN Y %X:Xe.z.Q.W.&XF.r % ,.N.E wX(.* 8 :XC.c.I.`.qXN c s.",
"9 q * ).9XuXlX:Xe.0.:X1 F.4.).VXVXVXVXVXVXVXfX~.5.5.'.5XsXP w.>.",
"s < K.4.).lXe %XY Y %X8 < ).VX. . . . . . . VXtX_.'.qXR 7X.X> & ",
"jX).9.F.< 7 < /.wXwX).* 7 VX. vXvXvXvXvXvXvX. VXcXXXY Z >X+X:X; ",
"! qX/.< 7 % F.9.).].8.J.VX. vXu u u u u u u vX. VX: e.z W I r.1.",
"_ Y %Xe lX/.9.A.T.#Xc.n.VX. u u u u u u u u u . VX-XZ.M.} } b.:.",
"a.0.:XlXuXaX).R.L.z.l  .VX. u   VXu u u u u u . VXD.O p.+.+.2X& ",
"=.J.# %XL L %X& :.g.K @.VX. u     u u u bXbXbXbXbXVX^.,XC H !.% ",
"@ < q {.x.C.|.; =.*.=X2XVX. u vXvXu u bXmXmXmXBXBXbXVXS x j.&.<.",
"9 t kX).3.K.< 3 F.P.r : VX. u u u u u bXnXnXnXnXnXnXbXVXV.%.h.a.",
"8 kXuXaX).< q 5 3 < 7 .XVX. o u u u u o bXbXbXbXbXbXVXk.#X*XK ` ",
"a %XJ L %Xq , 2 4 VXVXVXN VX. o u u u u o o . VXVXVX0.e.:XlXrX! ",
"a :XC.x.}.< F.F.VXh h h VXh.VX. VXVXVXVXVX. VXuX@X%XY Y %Xe lXjX",
"jX).8.K.< < P.VXh VXVXVXh VXVXX y y y y y X VXY .X@XrXaX).& & + ",
"@.qX).r q q VXh VXNXNXNXVXh h g g g g g y X VXV.:X6 lX).8.1.1.=.",
"Q yX].= %XjXVXh NXNXh h NXNXNXVXVXg g g g y X VX).lX6 :Xq.g.*.2.",
"fX'.H.w.Y @.VXh NXh NXNXNXNXNXNXNXVXg g g g X VXqXuX@X.XY G t.+ ",
"xXi.m.c C ! VXh NXX g NXNXNXNXNXNXNXg g g g X VXR eX@X.XY Y %Xp ",
"D A } C >XfXVXh MXX g g NXNXNXNXNXg g g g y X VX7XoX6 :XC.q.:Xa ",
"/ ( X.U .Xw VXh MXMXX g g g g g g g X y y y X VX4XcXfX).7.5.).jX",
") o.b w.: OXrXVXh MXMXX X X X X X X y y y X VX3XdXQ @.qX'.'.yX! ",
"| k B.Z.T.).wXK VXh MXMXMXMXMXMXMXy y y X VX`.6XV  .O.pXOXXXP _ ",
"f.z.[.T.A.4.).=X&.VXh h h h h h X X X X VX].yXB c v.y.OXe :Xq.a.",
":.6.].).4.A.R.#Xz.z.VXf f f VXVXVXd d VXT.1X+.} M.H._.XX:XW.G.:.",
"& (.0XqX).R.D.z.M M VXf f f f VXVXd d d VXb.} ..p.`.yXP q.G.R.2 ",
"a hXQ ! gX% :.a.] ] a.VXVXVXVX-.+ VXVXVX1.a.' ~ cXcX^ _ a.:.2 0 "
};
