/* XPM */
static char *f3893de399ca4563f1064a03f0d801ecmXiwLbxq0fDHSDf8[] = {
/* columns rows colors chars-per-pixel */
"32 32 4 1 ",
"  c #18101C",
". c #39313C",
"X c #DFDDE0",
"o c #FEFDFF",
/* pixels */
"      ......... XXXXXXoooooooooX",
"     ......... .XXXXXoooooooooXo",
"    ......... ..XXXXoooooooooXoo",
"   ......... ...XXXoooooooooXooo",
"  ......... ... XXoooooooooXoooX",
" ......... ...  XoooooooooXoooXX",
"......... ...   oooooooooXoooXXX",
"........ ...    ooooooooXoooXXXX",
"....... ...     oooooooXoooXXXXX",
"...... ...      ooooooXoooXXXXXX",
"..... ...       oooooXoooXXXXXXX",
".... ...        ooooXoooXXXXXXXX",
"... ...         oooXoooXXXXXXXXX",
".. ...          ooXoooXXXXXXXXXX",
". ...           oXoooXXXXXXXXXXX",
" ...            XoooXXXXXXXXXXXX",
"XXXXXXoooooooooX      ......... ",
"XXXXXoooooooooXo     ......... .",
"XXXXoooooooooXoo    ......... ..",
"XXXoooooooooXooo   ......... ...",
"XXoooooooooXoooX  ......... ... ",
"XoooooooooXoooXX ......... ...  ",
"oooooooooXoooXXX......... ...   ",
"ooooooooXoooXXXX........ ...    ",
"oooooooXoooXXXXX....... ...     ",
"ooooooXoooXXXXXX...... ...      ",
"oooooXoooXXXXXXX..... ...       ",
"ooooXoooXXXXXXXX.... ...        ",
"oooXoooXXXXXXXXX... ...         ",
"ooXoooXXXXXXXXXX.. ...          ",
"oXoooXXXXXXXXXXX. ...           ",
"XoooXXXXXXXXXXXX ...            "
};
