/* XPM */
static char *_a65b0d118d04d4be72d2deffff1e25fmRDK406Msp5pijgW[] = {
/* columns rows colors chars-per-pixel */
"32 32 181 2 ",
"   c None",
".  c #41240D",
"X  c #422710",
"o  c #432C14",
"O  c #482E15",
"+  c #422F1C",
"@  c #473115",
"#  c #44301B",
"$  c #4C331B",
"%  c #5E3E1F",
"&  c #53371D",
"*  c #613F1F",
"=  c #513B26",
"-  c #5D3E22",
";  c #533E2A",
":  c #613F22",
">  c #5E4024",
",  c #54422D",
"<  c #594329",
"1  c #574534",
"2  c #5B4532",
"3  c #564937",
"4  c #5D4936",
"5  c #574939",
"6  c #5C4B3A",
"7  c #634425",
"8  c #694625",
"9  c #6B4826",
"0  c #674728",
"q  c #69472A",
"w  c #6C4A29",
"e  c #714C29",
"r  c #7B542E",
"t  c #75512C",
"y  c #634932",
"u  c #684C31",
"i  c #624C39",
"p  c #65523D",
"a  c #68523D",
"s  c #7E5832",
"d  c #7C5D3C",
"f  c #6D5742",
"g  c #6E5B43",
"h  c #735C43",
"j  c #725E49",
"k  c #746047",
"l  c #7C6346",
"z  c #7C644A",
"x  c #7F684B",
"c  c #74604C",
"v  c #7A6651",
"b  c #7F6C56",
"n  c #8E5B24",
"m  c #805730",
"M  c #825C32",
"N  c #885F33",
"B  c #8D6337",
"V  c #85623D",
"C  c #8C6539",
"Z  c #8E683C",
"A  c #93663A",
"S  c #946B3D",
"D  c #9A6B3E",
"F  c #9B713E",
"G  c #856641",
"H  c #80674B",
"J  c #856A4B",
"K  c #8A6E4B",
"L  c #896B45",
"P  c #966D41",
"I  c #88704C",
"U  c #8B7045",
"Y  c #967041",
"T  c #9D7443",
"R  c #9F7846",
"E  c #98774C",
"W  c #826C55",
"Q  c #8B6E50",
"!  c #806E58",
"~  c #8E7151",
"^  c #86735B",
"/  c #89755D",
"(  c #8E7A5F",
")  c #937453",
"_  c #967B57",
"`  c #9D7E54",
"'  c #A27645",
"]  c #A57945",
"[  c #A97F4B",
"{  c #A77B48",
"}  c #8C7960",
"|  c #937D63",
" . c #AE824C",
".. c #B1864D",
"X. c #B5894E",
"o. c #AC8451",
"O. c #A38155",
"+. c #B18651",
"@. c #B48B54",
"#. c #B98C53",
"$. c #B88E58",
"%. c #B89156",
"&. c #BB945A",
"*. c #BE9A5C",
"=. c #B6935D",
"-. c #958267",
";. c #97846A",
":. c #9A856C",
">. c #9E8B6D",
",. c #9C8A72",
"<. c #968A79",
"1. c #9C927E",
"2. c #A18B6F",
"3. c #AC926A",
"4. c #BA9760",
"5. c #BE9F63",
"6. c #A48D73",
"7. c #A48F78",
"8. c #AE9875",
"9. c #A7937A",
"0. c #AA947B",
"q. c #AD9A7E",
"w. c #A99374",
"e. c #B19576",
"r. c #B0977C",
"t. c #B39B7C",
"y. c #C2965D",
"u. c #C39B5E",
"i. c #C59C61",
"p. c #C6A263",
"a. c #C6A76A",
"s. c #C5A96A",
"d. c #C8AB6C",
"f. c #CCB473",
"g. c #CFB875",
"h. c #D0B978",
"j. c #D1B976",
"k. c #A69884",
"l. c #AB9E8A",
"z. c #A89A85",
"x. c #B79D81",
"c. c #B5A384",
"v. c #BAA686",
"b. c #B0A38D",
"n. c #B8A68A",
"m. c #B6A88E",
"M. c #BCAB8B",
"N. c #BAAE91",
"B. c #BCB096",
"V. c #BDB29B",
"C. c #C1AE8E",
"Z. c #C3B08F",
"A. c #C4B593",
"S. c #C7B896",
"D. c #C2B59C",
"F. c #C6B99A",
"G. c #C9BC9D",
"H. c #C9BB97",
"J. c #C6BAA4",
"K. c #CBBDA6",
"L. c #CDBEA9",
"P. c #CDC09F",
"I. c #CEC1A3",
"U. c #CEC1A9",
"Y. c #D0C2A4",
"T. c #D1C4AC",
"R. c #D5CAB3",
"E. c #D9CFB7",
"W. c #D8CCB3",
"Q. c #D6CFB8",
"!. c #D3C6B0",
"~. c #DAD0B7",
"^. c #DCD2B9",
"/. c #DED6C2",
"(. c #E6DDC7",
"). c #E4DBC4",
"_. c #E9E2CE",
"`. c #EAE2CB",
"'. c #EEE6D1",
"]. c white",
"[. c white",
/* pixels */
"                                                                ",
"                                                                ",
"                                        ].].].].].].            ",
"                                    ].].B.V.D.D.N.B.].          ",
"        ].].].].          ].].].].].@.T  .[ { d Q.D.J.].        ",
"    ].].1.1.<.<.].].].].].T S P  ...%.s.....y.&.U /.L.K.].      ",
"  ].5 6 6 p l.b.1.k.e s Z T @.=.] %.&.*.f.f...i.y.` (.U.U.].    ",
"].3 5 6 p a g j V.z.l.M S ]  .+.5.] *.u.p.g.X.p.i.&.O._.T.^.].  ",
"].3 5 i p f j l z J.b.m.Z '  .X.p.] y.u.p.p.j.@.p.y.) '.`.(.].  ",
"].3 4 + $ & k z H J L.m.N.F [ ..#.d.{ u.p.p.h...i.y. .G '._.(.].",
"].3 4 # > 7 - : J Q ~ W.D.D.D  .@.s.] y.u.u.u.f...y. .V '._.(.].",
"].2 6 o > 7 0 9 8 Q ) E.D.!.B ] ..#.a.] y.y.&.d.[ @. .G '.`.R.].",
"].2 i o > 7 0 w 8 ) ) E.!.!.N F ]  .i.T #.$.@.$.S ' T.T._.T.T.].",
"].2 i a o @ 0 9 w 9 ) ) ^.W.R.N F ' @.B T T T I.Y.Y.T.U._.T.K.].",
"].2 i a f k & < 8 8 ) ) ^.W.W.M B B A S.F.F.H.G.P.I.I.L.(.G.G.].",
"].2 i p h h z J y u ) ) ^.!.M.m A.A.A.A._ ) (.(.W.G.G.L ).F.F.].",
"].2 4 # - h l x J Q ~ ) R.M.M.M.C.C.Z.Z.~ L.U.3.).F S P ~.A.C.].",
"].1 4 o > - : z J Q I ~ T.M.M.M.M.M.M.C.K F.L._ ^. . .D E.M.v.].",
"].1 4 X > 0 0 7 7 J J K T.c.v.v.v.B B d d A.A.!.T. .+.S T.x.t.].",
"]., 2 . > 0 0 9 8 : * K K.c.c.M B T @.' n N e.e.S +.+.A U.r.w.].",
"].; 2 . 7 0 q 0 8 0 * J D.q.t.s S T @.T ..#.S Z  .#. .C J.8.w.].",
"].; , X 7 0 0 0 0 0 * H B.9.0.r S T @.T #.%.%.5.[ +.[ V F.6.2.].",
"].= , , o O 7 0 7 7 % H m.6.6.t S T @.T @.$.@.4.R S Z d N.>.:.].",
"  ]., , 2 2 $ 7 7 7 % l c.,.6.e C P o.Y [ o.R o.C M.M.n.,.-.| ].",
"    ]., , 2 2 $ > > % l q.:.:.8 M C R M S Z N.B.M.6.>.-.| ].].  ",
"      ].].1 2 i = ; % l 9.-.| 8 e e r m.N.N.:.;.;.:.;.].].      ",
"          ].2 2 a a < h ,.} } 7 7.9.0.| | | | | | ].].          ",
"            ].y i p a f ;.^ ^ ^ / ^ / ( / ^ / ].].              ",
"              ].4 i i a } b W b W W W W ].].].                  ",
"                ].].i i ^ v v v v ].].].                        ",
"                    ].4 ! c ].].].                              ",
"                      ].].].                                    "
};
