/* XPM */
static char *cdbdd71410c24a06dccc0396101d99a1qti4qMz30Z3Wdbgh[] = {
/* columns rows colors chars-per-pixel */
"32 32 147 2 ",
"   c None",
".  c #784710",
"X  c #7B4B12",
"o  c #824D12",
"O  c #845315",
"+  c #8C5414",
"@  c #8B5A1C",
"#  c #915413",
"$  c #945B17",
"%  c #935C1B",
"&  c #9B611D",
"*  c #A2651E",
"=  c #9E6420",
"-  c #9E6923",
";  c #A16621",
":  c #A46B23",
">  c #A96C23",
",  c #AD7226",
"<  c #AD7429",
"1  c #AD782B",
"2  c #B17326",
"3  c #BC7A26",
"4  c #B27629",
"5  c #B37B2C",
"6  c #B87A2A",
"7  c #A67A37",
"8  c #C97D26",
"9  c #C37D28",
"0  c #BB842F",
"q  c #B78432",
"w  c #BB8534",
"e  c #BE8935",
"r  c #BD8E3B",
"t  c #C7832C",
"y  c #C9892D",
"u  c #C28632",
"i  c #C48A35",
"p  c #C6973D",
"a  c #CC933A",
"s  c #C99D3F",
"d  c #D1963B",
"f  c #C29643",
"g  c #C69C44",
"h  c #C99C41",
"j  c #C39A4B",
"k  c #C69E51",
"l  c #CCA244",
"z  c #CDA44A",
"x  c #D0AA47",
"c  c #D0A649",
"v  c #D3AC4C",
"b  c #D5B04C",
"n  c #D8B64E",
"m  c #C8A152",
"M  c #CCA953",
"N  c #D3AC51",
"B  c #D2AC5F",
"V  c #D7B455",
"C  c #DAB654",
"Z  c #DDBC55",
"A  c #D6B45B",
"S  c #D8B55C",
"D  c #DBBB5D",
"F  c #E0BD54",
"G  c #E0BF5C",
"H  c #D2AD61",
"J  c #D5B363",
"K  c #DCBC63",
"L  c #D6B469",
"P  c #DCBC6C",
"I  c #DEBD72",
"U  c #E1C057",
"Y  c #E3C359",
"T  c #DFC161",
"R  c #DEC16F",
"E  c #DFC075",
"W  c #E5C462",
"Q  c #E1C16B",
"!  c #E8C969",
"~  c #E2C476",
"^  c #E6C973",
"/  c #E9CB72",
"(  c #E4C67A",
")  c #E5CA7A",
"_  c #EACA7A",
"`  c #EAD07E",
"'  c #E7CE82",
"]  c #EACE83",
"[  c #ECD286",
"{  c #EED38B",
"}  c #F0D386",
"|  c #F5D886",
" . c #F2D68E",
".. c #F7DE8F",
"X. c #EFD590",
"o. c #F0D793",
"O. c #F4DC94",
"+. c #F4DE9B",
"@. c #F6E196",
"#. c #F9E395",
"$. c #F4E19B",
"%. c #F8E69C",
"&. c #FBEA9C",
"*. c #F6E2A4",
"=. c #F9E5A1",
"-. c #FAEBA3",
";. c #F7E3A8",
":. c #F8E6A9",
">. c #FBEFAA",
",. c #FCEEA9",
"<. c #FBEEAE",
"1. c #FCEDAC",
"2. c #FCEDAD",
"3. c #FCEFAC",
"4. c #FCEFAE",
"5. c #FBEAA8",
"6. c #FBF0A6",
"7. c #FCF1AE",
"8. c #FCF2AE",
"9. c #FCF2AF",
"0. c #FDF2AB",
"q. c #FBE8B3",
"w. c #FAEBB5",
"e. c #FCECBA",
"r. c #FCF1B0",
"t. c #FDF0B1",
"y. c #FCF2B0",
"u. c #FDF2B4",
"i. c #FDF2B5",
"p. c #FDF3B7",
"a. c #FFF4B4",
"s. c #FDF4B7",
"d. c #FEF4B4",
"f. c #FEF3B8",
"g. c #FDF3BA",
"h. c #FDF4B8",
"j. c #FEF5BC",
"k. c #FEF5BD",
"l. c #FEF5BF",
"z. c #FEF5B9",
"x. c #FFF5C1",
"c. c #FEF6C1",
"v. c #FFF5C4",
"b. c #FFF6C5",
"n. c #FFF7C7",
"m. c white",
"M. c white",
/* pixels */
"                                                                ",
"                                                                ",
"                                                                ",
"                                                                ",
"                  m.m.m.m.m.m.m.m.m.                            ",
"              m.m.[  . .O.+.+.*.z.d.m.m.                        ",
"            m.7 ] ( ( ] [ X.+.:.c.n.n.q.m.m.                    ",
"          m.O ] I E ( ~ : < 5 0 i a n.e.w.k.m.                  ",
"        m.X ~ L P I = ; f { 1.N V D a d w.c.f.m.                ",
"        m.X ( H L & q r [ o.5.1.S D K T d k.k.d.m.              ",
"        m.X ( H L 1 w | O.] %.5.%.K K *.T a z.d.9.m.            ",
"      m.. @ ( H H < w * > %.O.=.5.Q ;.*.1.D a y.>.o.m.          ",
"      m.. @ ( B H < w p l 2 6 -.5.*.+.+.5.5.A i #.o.m.          ",
"      m.. @ ( H J 4 w p z V K u 5.+.+.+.1.,.#.N w ] ) m.        ",
"      m.X % ~ H J S w h v S Q <.-.$.+.+.i u u N w ) ' m.        ",
"      m.o % - ( J J e s 4 5.*.>.-.$.$.O.-.K A N 6 K P m.        ",
"      m.o & ; ( P P e h 6 y.$.9.-.O.y.O.%.@.` N c 4 K ) m.      ",
"      m.+ & ; ~ P R ~ s x 9 y.9.6.f.y -.-.#.] ) z , S ( m.      ",
"        m.# : > ( ~ ) [ l v 9 s.9.s./ t &.%.[ ] z > A ~ m.      ",
"        m.+ : > < ] ) [ %.x b 9 9.a.! ! 9 -.{ ^ l * M ~ m.      ",
"          m.# > , Q ] [ %.y.n Z 8 d W W G 3 -.> g & m E m.      ",
"          m.+ : > , o.+.d.z.s.Z Y Y Y U Z C > z = g j P m.      ",
"            m.# : > > +.y.s.z.s.s.U U F C V N l & j f P m.      ",
"              m.+ ; ; & * s.s.s.s.=.%.#.b N z P H m j m.        ",
"                m.o % & ; & y.s.s.=.$.+.&.#.~ P B k P m.        ",
"                  m.o o $ $ $ & 0.+.+.O.%...~ P H P m.          ",
"                    m.m.o O O % + $ : } #.#._ ~ m.m.            ",
"                        m.m.m.o o o o o o o m.m.                ",
"                              m.m.m.m.m.m.m.                    ",
"                                                                ",
"                                                                ",
"                                                                "
};
