/* XPM */
static char *result[] = {
/* columns rows colors chars-per-pixel */
"32 32 128 2 ",
"   c #177E3A",
".  c #197C3C",
"X  c #2B7B37",
"o  c #2B763B",
"O  c #247C3A",
"+  c #347E33",
"@  c #397639",
"#  c #7A7F1C",
"$  c #567C2D",
"%  c #457D31",
"&  c #197741",
"*  c #197840",
"=  c #229A1D",
"-  c #2A9B1C",
";  c #3A951C",
":  c #309F19",
">  c #36AA0D",
",  c #38AB0D",
"<  c #2FA414",
"1  c #2FA018",
"2  c #31A513",
"3  c #30A018",
"4  c #16862F",
"5  c #158A2E",
"6  c #1C8D2A",
"7  c #1A9324",
"8  c #1B9028",
"9  c #158433",
"0  c #1E8533",
"q  c #168830",
"w  c #1E8830",
"e  c #168038",
"r  c #1A8038",
"t  c #208C27",
"y  c #25862E",
"u  c #248C2C",
"i  c #39872A",
"p  c #2B9622",
"a  c #2C9820",
"s  c #218433",
"d  c #2A8531",
"f  c #3E8032",
"g  c #538E18",
"h  c #4F991D",
"j  c #569D17",
"k  c #519218",
"l  c #5D9C1A",
"z  c #7A8A0F",
"x  c #638B16",
"c  c #6B8B15",
"v  c #64831F",
"b  c #6C841C",
"n  c #63961C",
"m  c #6A971C",
"M  c #689B1A",
"N  c #7A9D1B",
"B  c #47A113",
"V  c #458C25",
"C  c #548329",
"Z  c #568C28",
"A  c #448234",
"S  c #578730",
"D  c #5B8733",
"F  c #648224",
"G  c #6F8422",
"H  c #6A832E",
"J  c #708B2D",
"K  c #798F2D",
"L  c #8C850C",
"P  c #948907",
"I  c #9D8E05",
"U  c #91860C",
"Y  c #858416",
"T  c #8A8613",
"R  c #998E12",
"E  c #83991F",
"W  c #88981E",
"Q  c #A69303",
"!  c #AB9601",
"~  c #83A312",
"^  c #93A414",
"/  c #98A214",
"(  c #AEA008",
")  c #BDA200",
"_  c #B2A50E",
"`  c #AEA814",
"'  c #B2A915",
"]  c #BEA813",
"[  c #B1A818",
"{  c #819527",
"}  c #8E9B22",
"|  c #9E9B22",
" . c #9F9829",
".. c #AB9E22",
"X. c #A3992A",
"o. c #AFA020",
"O. c #B1A321",
"+. c #C6A700",
"@. c #CCAB00",
"#. c #D2AF00",
"$. c #D6B60F",
"%. c #D8B809",
"&. c #CAAD1A",
"*. c #D5B314",
"=. c #DAB513",
"-. c #E4BC03",
";. c #E9BE01",
":. c #E3BC0A",
">. c #C4AD28",
",. c #ECC003",
"<. c #F4C401",
"1. c #F9C701",
"2. c #FECC00",
"3. c #FFCE08",
"4. c #EDC210",
"5. c #E2C11B",
"6. c #FFD015",
"7. c #FFD118",
"8. c #E4C22B",
"9. c #FFD321",
"0. c #FFD62F",
"q. c #FED83F",
"w. c #F4D244",
"e. c #FCD640",
"r. c #FFDC52",
"t. c #FFE26D",
"y. c #FFE57B",
"u. c #FFE680",
/* pixels */
".   5 5   0 3 < 7 5 e r 5 5   . & s : : s s - 3 s . & s : 3 s * ",
".   8 8 9 0 p - 6 q e e 5 5 0 s . s - - s 0 - - s . s u a p 0   ",
"* s p - 6 q w 0 r e q q e 0 p p 0 e 6 6 r r 8 6   s p a u w 4 5 ",
"  u 3 < 7 5   . 0 y V Z A s p p 0   q q e e 5 5 0 u - - 0 r 8 7 ",
"4 7 2 2 7 5   d c ( -.4.8.>.K w 5 q e e 5 q e 0 p 1 = 6   s - < ",
"5 6 - - = 8 % T @.2.2.3.0.t.w.X.5 5 w y 4 q . s - - 8 q 0 u - < ",
"  r 0 u - ; T @.2.2.2.2.2.6.y.w.} 7 - p 0 . .   8 8 9 0 p - = 7 ",
". . . s - c ! <.2.:.o. .&.1.7.u.5.h - - u s 0 0 5 5 0 u - - 8 5 ",
"&   q 4 d Y +.2.-.M s * O O.2.r.e.^ u u p 3 1 p 0 0 p - u 0   . ",
"s 0 4 q + U #.2.` p w . & S ,.9.q.' 0 q - < > 1 s r - - u s r   ",
": p s   @ U @.2.| 0 q q . f :.3.6.O.5 5 7 = < 1 s   8 = - - 8 5 ",
"< - s . + L ) 2.&.s 8 7 u { <.2.2.| 5 5 5 8 1 = 6   q 8 < 3 7 5 ",
"7 8   s p z Q ;.1.[ j B ~ :.2.2.<.m w   . 9 8 7 5 5   6 : 1 u . ",
"5 5   s - k P @.2.2.,.-.<.2.2.2._ p s . A 0 q 5 8 5 w 6 - - q . ",
"    .   6 8 F I -.2.2.2.2.2.2.;.O.d 5 } %.N q 9 5 7 = - = 7 5 5 ",
". . s 0 4 0   $ R -.2.2.2.,.@.-.1.O.E ,.2.-.J   9 7 1 1 8 5 7 7 ",
"* s p p 0 . & . X H X.../ n # ! ,.1.<.2.2.;.R o . 0 8 8 q 0 - < ",
"* 0 - - 0 .   . * . s t - - s b ! ;.2.2.-.Q C s .   5 6 r s p 3 ",
"* r 6 8     q q . s p - = 7 5 6 b ! ,.1.@.G p p s 0 p - s . s s ",
"s 0 5 0     q 5 9 s < < 8 5 7 7 6 b ! ,.2.*.l - S ..n p 0       ",
"3 p w   . . . e q 7 3 3 s 0 - - 4 s c ! ;.2.$.W =.2.*.C 5 5 5 5 ",
"3 p 0   s s s 0 q 7 < 1 6 0 p p 0 w - c Q ;.2.1.2.<.) # t 7 5 5 ",
"s 0 5 6 - 3 3 p 0 w 3 < 8 5 0 0 4 4 u s v Q ;.2.<.) Y i p - 6 e ",
"s s 7 = - : : p 0 0 p - = 8 u 0 4 5 e e 4 v Q ;.<._ f r - - 0 * ",
"- 3 < - t s s 0 5 5 4 u - 3 - a 0 e q 4 e 0 x Q ] D . . 8 7 r * ",
", > > - 0 * r w 5 5 6 u - 3 < - 0 . q 5 e s p g i s s 0 4 4 s s ",
", < = 5 r r a - 7 7 - p u u 8 8   .   r 5 5 6 u p : : - 0 0 p 3 ",
"< - 7 q r w p a 7 8 - - s r q 5 0 0 r r q 4 0 u - 2 : p 0 0 - 2 ",
"7 8 r e q 5 w w 5 5 5 w 5 5 e 0 p - 8 q e 0 - - = 7 0 0 . r 7 7 ",
"5 5 w w 5 q e 0 8 7 4 e q 5 r 0 p - 6 q   6 : 3 7 4 0 0 . r q 5 ",
"e 0 p p 6 e q 5 - 1 8 q   e 4 5 0 0 r e q 8 < 1 s 0 p - 6 q e   ",
". s : : s e 5 7 < < 7 5   r 5 5   & .   5 7 < : s s 3 < 7 5   . "
};
