/* XPM */
static char *_2367b1e11ae47228436a442fed3af91HL03VtD2WRf5RWPK[] = {
/* columns rows colors chars-per-pixel */
"32 32 18 1 ",
"  c None",
". c #4F422F",
"X c #81818A",
"o c #6C6C73",
"O c #92929C",
"+ c #EB94EB",
"@ c gray16",
"# c gray23",
"$ c gray31",
"% c #35312B",
"& c #9B2AEB",
"* c white",
"= c #C165FF",
"- c #48484D",
"; c #653488",
": c #9354CA",
"> c #C797FF",
", c #B57CF1",
/* pixels */
"                                ",
"                                ",
"                                ",
"                                ",
"                                ",
"                                ",
"            .       .           ",
"           .X.     .X.          ",
"          .oOo.   .oOo.         ",
"          .X+O.   .O+X.         ",
"         .o++Oo...oO++o.        ",
"         .X+XOXXXXXOX+X.        ",
"        @#XOOOOOOOOOOOX#@       ",
"        @#$$.$$$$$$$.$$#@       ",
"        @#$$..$$$$$..$$#@       ",
"       .%#$$&*$$$$$*&$$#%.      ",
"        .X$$==$$$$$==$$X.       ",
"       ..oXOOOOO.OOOOOXo..      ",
"         .oXOOO-o-OOOXo.        ",
"          ..ooXXXXXoo..         ",
"           ...........          ",
"          .X;:>,,,>:;X.         ",
"         .XOoO;>>>;OoOX.        ",
"        .oXo.OO;>;OO.oXo.       ",
"        .oo..OOO;OOO..oo.       ",
"         .. .XOOOOOX. ..o.      ",
"            .XoooooX...oo.      ",
"            .XX...XX.ooo.       ",
"            .XX...XX....        ",
"            .oo. .oo.           ",
"             ..   ..            ",
"                                "
};
