/* XPM */
static char *result[] = {
/* columns rows colors chars-per-pixel */
"32 32 13 1 ",
"  c gray16",
". c #35312B",
"X c gray23",
"o c #4F422F",
"O c gray31",
"+ c #6C6C73",
"@ c #653488",
"# c #9354CA",
"$ c #B57CF1",
"% c #81818A",
"& c #92929C",
"* c #C797FF",
"= c None",
/* pixels */
"================================",
"================================",
"================================",
"================================",
"================================",
"================================",
"============o=======o===========",
"===========o%o=====o%o==========",
"==========o+&+o===o+&+o=========",
"==========o%&&o===o&&%o=========",
"=========o+&&&+ooo+&&&+o========",
"=========o%&&&%%%%%&&&%o========",
"======== X%&&&&&&&&&&&%X =======",
"======== XOOOOX   XOOOOX =======",
"======== XOOOO OOO OOOOX =======",
"=======o.XOOOO XOX OOOOX.o======",
"========o%OOO X   X OOO%o=======",
"=======oo+%% XO & OX %%+oo======",
"=========o+% OO % OO %+o========",
"==========oo@@@%%%@@@oo=========",
"===========@**$#$#$**@==========",
"==========o%@##@@@##@%o=========",
"=========o%&+@@&&&@@+&%o========",
"========o+%+o&&&&&&&o+%+o=======",
"========o++oo&&&&&&&oo++o=======",
"========ooo=o%&&&&&%o=oo========",
"=======o%o==o%o&%o+%o===========",
"=======o+%oooo&%oo%%o===========",
"========o+%%&&%o=o%%o===========",
"=========ooooooo=o++o===========",
"=============oo===oo============",
"================================"
};
