/* XPM */
static char *result[] = {
/* columns rows colors chars-per-pixel */
"32 32 20 1 ",
"  c gray16",
". c gray23",
"X c #4F422F",
"o c #4F4B45",
"O c #48484D",
"+ c gray31",
"@ c #6C6C73",
"# c #7E7A7B",
"$ c #653488",
"% c #BA75BA",
"& c #9B2AEB",
"* c #9354CA",
"= c #B57CF1",
"- c #C165FF",
"; c #81818A",
": c #92929C",
"> c #C797FF",
", c #EB94EB",
"< c white",
"1 c None",
/* pixels */
"11111111111111111111111111111111",
"11111111111111111111111111111111",
"11111111111111111111111111111111",
"11111111111111111111111111111111",
"11111111111111111111111111111111",
"11111111111111111111111111111111",
"111111111111X111XX11111111111111",
"11111111111X@X1X;@X1111111111111",
"11111111111X@@XX:;@X111111111111",
"11111111111X%@@X,:;@X11111111111",
"11111111111X%%X;,,:;XX1111111111",
"1111111111X@;:::;,::;@X111111111",
"111111111 ;:::::::::::;  1111111",
"11111111 .+++++X+++++++ . 111111",
"11111111 X++++XX+++++++.  111111",
"11111111 <++++<&++++oX+. . 11111",
"11111111X-++++--+++++++; . 11111",
"11111111X@;X::::::::#X:@X 111111",
"111111111XO@O:::::::::;X11111111",
"1111111111XX@;;;;;;;@XX111111111",
"111111111111XXXXXXXXX*=$11111111",
"111111111111*>==>*$;X$$111111111",
"111111111111$=>>$:@:;X1111111111",
"111111111111X$>$:;X::X11X1111111",
"111111111111X@$::;X::X1X;X111111",
"1111111111111X@:;;X;;X1X;X111111",
"1111111111111X@@@;@XXXX;@X111111",
"1111111111111X@X;;@X@;;@X1111111",
"1111111111111X@X;;@XXXXX11111111",
"11111111111111XX@@@X111111111111",
"1111111111111111XXX1111111111111",
"11111111111111111111111111111111"
};
