/* XPM */
static char *_b857fa60a7b4c7cac6cde03c05dc5e5Ft4gbfVxcymBGRg5[] = {
/* columns rows colors chars-per-pixel */
"32 32 20 1 ",
"  c None",
". c #4F422F",
"X c #6C6C73",
"o c #81818A",
"O c #92929C",
"+ c #EB94EB",
"@ c #BA75BA",
"# c gray16",
"$ c gray23",
"% c gray31",
"& c #4F4B45",
"* c #9B2AEB",
"= c white",
"- c #C165FF",
"; c #7E7A7B",
": c #48484D",
"> c #653488",
", c #B57CF1",
"< c #9354CA",
"1 c #C797FF",
/* pixels */
"                                ",
"                                ",
"                                ",
"                                ",
"                                ",
"                                ",
"               ..   .           ",
"              .Xo. .X.          ",
"             .XoO..XX.          ",
"            .XoO+.XX@.          ",
"           ..oO++o.@@.          ",
"          .XoOO+oOOOoX.         ",
"        ##oOOOOOOOOOOOo#        ",
"       #$#%%%%%%%.%%%%%$#       ",
"       ##$%%%%%%%..%%%%.#       ",
"      #$#$%.&%%%%*=%%%%=#       ",
"      #$#o%%%%%%%--%%%%-.       ",
"       #.XO.;OOOOOOOO.oX.       ",
"         .oOOOOOOOOO:X:.        ",
"          ..XoooooooX..         ",
"         >,<.........           ",
"          >>.o><1,,1<           ",
"           .oOXO>11,>           ",
"        .  .OO.oO>1>.           ",
"       .o. .OO.oOO>X.           ",
"       .o. .oo.ooOX.            ",
"       .Xo....XoXXX.            ",
"        .XooX.Xoo.X.            ",
"         .....Xoo.X.            ",
"             .XXX..             ",
"              ...               ",
"                                "
};
