/* XPM */
static char *b8c875f153ff41a1f94bb061fa9088a5sD0viGn1EOn7KBEe[] = {
/* columns rows colors chars-per-pixel */
"32 32 7 1 ",
"  c #290C0C",
". c #491515",
"X c #4F2718",
"o c #A75223",
"O c #B55C2A",
"+ c #BF782C",
"@ c #CC8F4E",
/* pixels */
" +@@@++++++++OOO OO+@@@+++++OOOo",
".O++++++++++++Oo.O++++++++Oooooo",
".OOOOOOOOOoooooo.OOOOOOOOooooooo",
"XoOOOooooooooooo.oOOOOOOOooooooo",
".ooooooooooooooo.oOOOOOOOooooooo",
".ooooooooooooooo.oooOOOooooooooo",
" ooooooooooooooo ooooooooooooooo",
"  XX.       ...   ..      ..XX. ",
"++++OOO +@@@@++++OOOOOO ++@@@@++",
"OOooooo.O+++++++OOOOOOO.OOO+++++",
"ooooooo.OOOOOOOOOOoooooXoOOOOOOO",
"ooooooo.ooOOOOOOoooooooXoooooooo",
"ooooooo.oooooooooooooooXoooooooo",
"ooooooo.ooooooooooooooo.oooooooo",
"ooooooo ooooooooooooooo oooooooo",
"    ..      ...           .X.   ",
" O+@@@@+++++OOOo ++@@@@++++Ooooo",
".++++++++OOoooOO OO+++++++++OOOO",
".oOOOOooOOoooooo.ooOOOO+++OOOOOO",
".ooooooooooooooo.OOOOOoooooooooo",
".ooooooooooooooo.ooooooooooooooo",
".ooooooooooooooo.ooooooooooooooo",
" ooooooooooooooo ooooooooooooooo",
"  ..     ...XX     ..     .XXX. ",
"oOOoooo +@@@@@@+++Ooooo o+@@+OOo",
"++ooooo.O+++++++++++Ooo.++++++++",
"OOOOoooXooOOOO++++OOoooXoOOOOOOO",
"oooooooXoooOOooooooooooXoOOOOOOO",
"ooooooo.ooooooooooooooo.ooOOOooo",
"ooooooo.ooooooooooooooo.oooooooo",
"ooooooo ooooooooooooooo oooooooo",
"          ..XXX   .X.    .XXX.. "
};
